<svg id="レイヤー_1" data-name="レイヤー 1" xmlns="http://www.w3.org/2000/svg" viewBox="0 0 1965.91 1121.93"><polygon points="874.96 507.39 880.44 538.29 828.03 612.51 828.02 612.52 804.77 645.45 804.76 645.46 730.53 750.59 601.82 750.59 676.06 645.46 676.07 645.45 699.32 612.52 699.32 612.51 773.55 507.39 874.96 507.39"/><polygon points="1434.35 474.44 1411.09 507.38 1735.92 507.38 1661.69 612.51 1638.43 645.45 1564.18 750.59 951.78 750.59 950.44 742.95 934.25 650.28 934.1 649.42 933.4 645.46 927.64 612.52 902.85 474.44 562.52 474.44 539.26 507.38 465.03 612.51 441.75 645.46 638.14 645.46 563.9 750.59 0 750.59 74.24 645.46 313.06 645.46 336.32 612.51 410.56 507.38 433.82 474.44 297.94 474.44 372.18 369.31 991.87 369.31 993.43 378.29 1010.24 474.44 1016.12 507.39 1040.74 645.46 1080.31 645.46 1080.32 645.45 1509.72 645.45 1532.99 612.51 1208.15 612.51 1282.38 507.38 1305.64 474.44 1379.89 369.31 1965.91 369.31 1891.67 474.44 1434.35 474.44"/><polygon points="1067.28 612.52 1062.32 584.51 1116.78 507.39 1116.79 507.38 1140.05 474.44 1214.29 369.31 1342.99 369.31 1268.76 474.44 1245.49 507.38 1245.49 507.39 1171.26 612.51 1171.25 612.52 1067.28 612.52"/><path d="M1520.83,782h-164l-.65-1a415,415,0,0,0-91-103.27C1133.27,559.87,863.74,427.11,488.11,782c84.76-201.5,284-343,516.35-343S1436.07,580.52,1520.83,782Z" transform="translate(-21.52 -439.03)"/><path d="M488.11,1218h164l.65,1a415.2,415.2,0,0,0,91,103.27c131.92,117.86,401.45,250.62,777.08-104.29-84.76,201.5-284,343-516.35,343S572.87,1419.48,488.11,1218Z" transform="translate(-21.52 -439.03)"/></svg>