<?xml version="1.0" encoding="utf-8"?>
<!-- Generator: Adobe Illustrator 26.1.0, SVG Export Plug-In . SVG Version: 6.00 Build 0)  -->
<svg version="1.1" id="レイヤー_1" xmlns="http://www.w3.org/2000/svg" xmlns:xlink="http://www.w3.org/1999/xlink" x="0px"
	 y="0px" viewBox="0 0 2000 2000" style="enable-background:new 0 0 2000 2000;" xml:space="preserve">
<style type="text/css">
	.st0{fill:#C000FF;}
</style>
<polygon points="894.78,947.8 900.11,977.91 849.05,1050.23 849.04,1050.23 826.38,1082.32 826.38,1082.33 754.04,1184.76 
	628.64,1184.76 700.97,1082.33 700.98,1082.32 723.63,1050.23 723.64,1050.23 795.97,947.8 "/>
<polygon class="st0" points="1439.82,915.7 1417.15,947.79 1733.66,947.79 1661.32,1050.23 1638.66,1082.32 1566.32,1184.76 
	969.62,1184.76 968.32,1177.32 952.54,1087.02 952.39,1086.19 951.72,1082.33 946.11,1050.23 921.95,915.7 590.35,915.7 
	567.68,947.79 495.35,1050.23 472.67,1082.33 664.02,1082.33 591.69,1184.76 42.25,1184.76 114.58,1082.33 347.28,1082.33 
	369.95,1050.23 442.28,947.79 464.95,915.7 332.55,915.7 404.88,813.26 1008.68,813.26 1010.21,822 1026.58,915.7 1032.31,947.8 
	1056.3,1082.33 1094.86,1082.33 1094.86,1082.32 1513.26,1082.32 1535.93,1050.23 1219.42,1050.23 1291.75,947.79 1314.41,915.7 
	1386.75,813.26 1957.75,813.26 1885.42,915.7 "/>
<polygon points="1082.16,1050.23 1077.33,1022.94 1130.39,947.8 1130.4,947.79 1153.06,915.7 1225.4,813.26 1350.8,813.26 
	1278.47,915.7 1255.8,947.79 1255.8,947.8 1183.47,1050.23 1183.46,1050.23 "/>
<path d="M1503.11,787.61h-159.8c0,0-0.22-0.35-0.63-0.99c-23.77-38.31-53.8-72.32-88.65-100.63
	C1125.49,571.16,862.88,441.8,496.87,787.61c82.59-196.33,276.75-334.19,503.11-334.19
	C1226.36,453.42,1420.52,591.28,1503.11,787.61z"/>
<path d="M496.87,1212.39h159.8c0,0,0.22,0.35,0.63,0.99c23.77,38.31,53.8,72.32,88.65,100.63
	c128.54,114.83,391.16,244.19,757.16-101.62c-82.59,196.33-276.75,334.19-503.11,334.19
	C773.63,1546.58,579.46,1408.72,496.87,1212.39z"/>
</svg>
